<?xml version="1.0" standalone="no"?>
<!DOCTYPE svg PUBLIC "-//W3C//DTD SVG 1.1//EN" "http://www.w3.org/Graphics/SVG/1.1/DTD/svg11.dtd" >
<svg xmlns="http://www.w3.org/2000/svg">
<metadata>Generated by IcoMoon</metadata>
<defs>
<font id="icomoon" horiz-adv-x="1024">
<font-face units-per-em="1024" ascent="960" descent="-64" />
<missing-glyph horiz-adv-x="1024" />
<glyph unicode="&#x20;" horiz-adv-x="512" d="" />
<glyph unicode="&#xe900;" glyph-name="verification-code" d="M780.8 470.4l-204.8-204.8-102.4 108.8c-12.8 12.8-32 12.8-44.8 0s-12.8-32 0-44.8l124.8-134.4c0 0 0 0 0 0s0 0 0 0c3.2-3.2 3.2-3.2 6.4-3.2 0 0 3.2-3.2 3.2-3.2 3.2-3.2 9.6-3.2 12.8-3.2s9.6 0 12.8 3.2c0 0 3.2 0 3.2 3.2 3.2 0 6.4 3.2 6.4 3.2s0 0 0 0 0 0 0 0l230.4 227.2c12.8 12.8 12.8 32 0 44.8-16 16-35.2 16-48 3.2zM224 579.2h576c19.2 0 32 12.8 32 32s-12.8 32-32 32h-576c-19.2 0-32-12.8-32-32s12.8-32 32-32zM320 377.6h-96c-19.2 0-32-12.8-32-32s12.8-32 32-32h96c19.2 0 32 12.8 32 32s-12.8 32-32 32zM928 896h-832c-54.4 0-96-41.6-96-96v-704c0-54.4 41.6-96 96-96h832c54.4 0 96 41.6 96 96v704c0 54.4-41.6 96-96 96zM960 96c0-16-12.8-32-32-32h-832c-19.2 0-32 12.8-32 32v704c0 16 12.8 32 32 32h832c19.2 0 32-12.8 32-32v-704z" />
<glyph unicode="&#xe901;" glyph-name="account" d="M512 355.2c-166.4 0-300.8 134.4-300.8 300.8 0 169.6 134.4 304 300.8 304s300.8-134.4 300.8-300.8c0-166.4-134.4-304-300.8-304zM512 896c-131.2 0-236.8-105.6-236.8-236.8s105.6-236.8 236.8-236.8 236.8 105.6 236.8 236.8c0 131.2-105.6 236.8-236.8 236.8zM960-64c-16 0-32 12.8-32 28.8-12.8 217.6-195.2 390.4-416 390.4-217.6 0-400-172.8-416-390.4 0-19.2-16-32-35.2-28.8-19.2 0-32 16-28.8 35.2 16 252.8 227.2 451.2 480 451.2s464-198.4 480-451.2c0-19.2-12.8-35.2-32-35.2 0 0 0 0 0 0z" />
<glyph unicode="&#xe902;" glyph-name="password" d="M512 448c-80 0-144-64-144-144 0-67.2 48-124.8 112-140.8v-83.2c0-19.2 12.8-32 32-32s32 12.8 32 32v83.2c64 16 112 70.4 112 140.8 0 80-64 144-144 144zM512 224c-44.8 0-80 35.2-80 80s35.2 80 80 80 80-35.2 80-80c0-44.8-35.2-80-80-80zM841.6 576h-105.6v160c0 124.8-102.4 224-224 224s-224-102.4-224-224v-160h-105.6c-48 0-86.4-38.4-86.4-86.4v-464c0-51.2 38.4-89.6 86.4-89.6h656c48 0 86.4 38.4 86.4 89.6v464c3.2 48-35.2 86.4-83.2 86.4zM352 736c0 89.6 73.6 160 160 160 89.6 0 160-73.6 160-160v-160h-320v160zM864 25.6c0-12.8-9.6-25.6-22.4-25.6h-659.2c-12.8 0-22.4 9.6-22.4 25.6v464c0 12.8 9.6 22.4 22.4 22.4h656c12.8 0 22.4-9.6 22.4-25.6v-460.8z" />
<glyph unicode="&#xe903;" glyph-name="reload" d="M969.6 300.8c-16 6.4-35.2-3.2-41.6-19.2-64-166.4-224-278.4-403.2-278.4-233.6 0-428.8 192-428.8 432s192 432 428.8 432c102.4 0 201.6-38.4 278.4-105.6h-115.2c-19.2 0-32-16-32-32 0-19.2 16-32 32-32h198.4c19.2 0 32 16 32 32 0 0 0 3.2 0 3.2s0 3.2 0 3.2v192c0 19.2-16 32-32 32s-32-16-32-32v-121.6c-89.6 80-208 128-329.6 128-272 0-492.8-224-492.8-499.2s220.8-499.2 496-499.2c204.8 0 390.4 128 464 323.2 3.2 16-3.2 35.2-22.4 41.6z" />
<glyph unicode="&#xe904;" glyph-name="back" d="M272 412.8c-9.6 0-16 3.2-25.6 9.6-12.8 12.8-12.8 35.2 0 48l480 480c12.8 12.8 35.2 12.8 48 0s12.8-35.2 0-48l-480-480c-3.2-6.4-12.8-9.6-22.4-9.6zM748.8-64c-9.6 0-16 3.2-25.6 9.6l-473.6 476.8c-12.8 12.8-12.8 35.2 0 48s35.2 12.8 48 0l476.8-476.8c12.8-12.8 12.8-35.2 0-48-6.4-6.4-16-9.6-25.6-9.6z" />
<glyph unicode="&#xe905;" glyph-name="required" d="M1020.8 569.6c-12.8 41.6-57.6 60.8-96 48l-336-108.8v352c0 41.6-35.2 76.8-76.8 76.8s-76.8-35.2-76.8-76.8v-352l-336 108.8c-41.6 12.8-83.2-9.6-96-48-12.8-41.6 9.6-83.2 48-96l336-108.8-208-284.8c-25.6-35.2-16-83.2 16-105.6 12.8-9.6 28.8-16 44.8-16 22.4 0 48 9.6 60.8 32l208 284.8 208-284.8c16-19.2 38.4-32 60.8-32 16 0 32 3.2 44.8 16 35.2 25.6 41.6 73.6 16 105.6l-208 284.8 336 108.8c44.8 12.8 67.2 54.4 54.4 96z" />
<glyph unicode="&#xe906;" glyph-name="pull-down" d="M1024 726.4c0 25.6-22.4 48-48 48h-928c-25.6 0-48-22.4-48-48 0-12.8 6.4-22.4 12.8-32v0l460.8-553.6c9.6-9.6 22.4-19.2 35.2-19.2 16 0 28.8 6.4 35.2 19.2v0l470.4 556.8c6.4 9.6 9.6 19.2 9.6 28.8z" />
<glyph unicode="&#xe907;" glyph-name="cancel" d="M512-64c-281.6 0-512 230.4-512 512s230.4 512 512 512 512-230.4 512-512-230.4-512-512-512zM512 892.8c-243.2 0-444.8-201.6-444.8-444.8s201.6-444.8 444.8-444.8 444.8 201.6 444.8 444.8-201.6 444.8-444.8 444.8zM67.2 483.2h886.4v-67.2h-886.4v67.2z" />
<glyph unicode="&#xe908;" glyph-name="conserve" d="M889.6 928h-137.6c0 0 0 0 0 0s0 0 0 0h-137.6c0 0 0 0 0 0s0 0 0 0h-342.4c0 0 0 0 0 0s0 0 0 0h-137.6c-57.6 0-102.4-44.8-102.4-102.4v-755.2c0-57.6 44.8-102.4 102.4-102.4h755.2c57.6 0 102.4 44.8 102.4 102.4v755.2c0 57.6-44.8 102.4-102.4 102.4zM307.2 860.8h272v-172.8c0-19.2 16-35.2 35.2-35.2s35.2 16 35.2 35.2v172.8h70.4v-240c0-19.2-16-35.2-35.2-35.2h-345.6c-19.2 0-35.2 16-35.2 35.2v240zM924.8 70.4c0-19.2-16-35.2-35.2-35.2h-755.2c-19.2 0-35.2 16-35.2 35.2v755.2c0 19.2 16 35.2 35.2 35.2h102.4v-240c0-57.6 44.8-102.4 102.4-102.4h342.4c57.6 0 102.4 44.8 102.4 102.4v240h102.4c19.2 0 35.2-16 35.2-35.2v-755.2z" />
<glyph unicode="&#xe909;" glyph-name="new" d="M960 409.6h-896c-19.2 0-38.4 16-38.4 38.4 0 19.2 16 38.4 38.4 38.4h896c19.2 0 38.4-16 38.4-38.4-3.2-19.2-19.2-38.4-38.4-38.4zM512-32c-19.2 0-38.4 16-38.4 38.4v883.2c0 22.4 19.2 38.4 38.4 38.4s38.4-16 38.4-38.4v-886.4c0-19.2-19.2-35.2-38.4-35.2z" />
<glyph unicode="&#xe90a;" glyph-name="cue" d="M512-64c-281.6 0-512 230.4-512 512s230.4 512 512 512 512-230.4 512-512-230.4-512-512-512zM512 892.8c-243.2 0-444.8-201.6-444.8-444.8s201.6-444.8 444.8-444.8 444.8 201.6 444.8 444.8-201.6 444.8-444.8 444.8zM512 137.6c-19.2 0-35.2 16-35.2 35.2v67.2c0 19.2 16 35.2 35.2 35.2s35.2-16 35.2-35.2v-67.2c0-22.4-16-35.2-35.2-35.2zM512 342.4c-19.2 0-35.2 16-35.2 35.2v339.2c0 19.2 16 35.2 35.2 35.2s35.2-16 35.2-35.2v-342.4c0-19.2-16-32-35.2-32z" />
<glyph unicode="&#xe90b;" glyph-name="delete" d="M988.8 668.8h-953.6c-19.2 0-35.2 19.2-35.2 38.4s16 35.2 35.2 35.2h950.4c19.2 0 35.2-16 35.2-35.2s-12.8-38.4-32-38.4zM393.6 156.8c-19.2 0-35.2 16-35.2 35.2v291.2c0 19.2 16 35.2 35.2 35.2s35.2-16 35.2-35.2v-291.2c0-19.2-16-35.2-35.2-35.2zM620.8 156.8c-19.2 0-35.2 16-35.2 35.2v291.2c0 19.2 16 35.2 35.2 35.2s35.2-16 35.2-35.2v-291.2c0-19.2-16-35.2-35.2-35.2zM768-64h-512c-60.8 0-108.8 48-108.8 108.8v649.6c0 19.2 16 35.2 35.2 35.2s35.2-16 35.2-35.2v-649.6c0-19.2 16-35.2 35.2-35.2h512c19.2 0 35.2 16 35.2 35.2v649.6c0 19.2 16 35.2 35.2 35.2s35.2-16 35.2-35.2v-649.6c6.4-60.8-41.6-108.8-102.4-108.8zM691.2 675.2c-19.2 0-35.2 16-35.2 35.2v137.6c0 19.2-16 35.2-35.2 35.2h-224c-19.2 0-35.2-16-35.2-35.2v-137.6c0-19.2-16-35.2-35.2-35.2s-41.6 16-41.6 35.2v137.6c0 60.8 48 108.8 108.8 108.8h224c60.8 0 108.8-48 108.8-108.8v-137.6c3.2-19.2-16-35.2-35.2-35.2z" />
<glyph unicode="&#xe90c;" glyph-name="edit" d="M889.6-25.6h-755.2c-57.6 0-102.4 44.8-102.4 102.4v684.8c0 57.6 44.8 102.4 102.4 102.4h409.6c19.2 0 35.2-16 35.2-35.2s-16-35.2-35.2-35.2h-409.6c-19.2 0-35.2-16-35.2-35.2v-684.8c0-19.2 16-35.2 35.2-35.2h755.2c19.2 0 35.2 16 35.2 35.2v342.4c0 19.2 16 35.2 35.2 35.2s35.2-16 35.2-35.2v-339.2c-3.2-57.6-48-102.4-105.6-102.4zM361.6 249.6c-9.6 0-16 3.2-22.4 9.6-12.8 12.8-16 35.2-3.2 48l566.4 604.8c12.8 12.8 35.2 16 48 3.2s16-35.2 3.2-48l-566.4-608c-6.4-6.4-16-9.6-25.6-9.6z" />
<glyph unicode="&#xe90d;" glyph-name="last-page" d="M278.4 400c-12.8 0-22.4 3.2-32 12.8-19.2 19.2-19.2 48 0 67.2l467.2 467.2c19.2 19.2 48 19.2 67.2 0s19.2-48 0-67.2l-470.4-467.2c-6.4-6.4-19.2-12.8-32-12.8zM742.4-64c-12.8 0-22.4 3.2-32 12.8l-464 464c-19.2 19.2-19.2 48 0 67.2s48 19.2 67.2 0l464-464c19.2-19.2 19.2-48 0-67.2-9.6-9.6-22.4-12.8-35.2-12.8z" />
<glyph unicode="&#xe90e;" glyph-name="next-page" d="M745.6 496c12.8 0 22.4-3.2 32-12.8 19.2-19.2 19.2-48 0-67.2l-467.2-467.2c-19.2-19.2-48-19.2-67.2 0s-19.2 48 0 67.2l467.2 467.2c9.6 6.4 22.4 12.8 35.2 12.8zM281.6 960c12.8 0 22.4-3.2 32-12.8l464-464c19.2-19.2 19.2-48 0-67.2s-48-19.2-67.2 0l-464 464c-16 19.2-16 48 0 67.2 9.6 9.6 22.4 12.8 35.2 12.8z" />
<glyph unicode="&#xe90f;" glyph-name="choose" d="M390.4 83.2c-19.2 0-41.6 9.6-57.6 22.4l-310.4 326.4c-28.8 32-28.8 80 3.2 108.8s80 28.8 108.8-3.2l310.4-323.2c28.8-32 28.8-80-3.2-108.8-12.8-16-32-22.4-51.2-22.4zM390.4 83.2c-19.2 0-38.4 6.4-54.4 22.4-32 28.8-32 80-3.2 108.8l553.6 576c28.8 32 80 32 108.8 3.2 32-28.8 32-80 3.2-108.8l-550.4-579.2c-16-16-35.2-22.4-57.6-22.4z" />
<glyph unicode="&#xe910;" glyph-name="retract" d="M947.2 371.2h-870.4c-41.6 0-76.8 35.2-76.8 76.8s35.2 76.8 76.8 76.8h870.4c41.6 0 76.8-35.2 76.8-76.8s-35.2-76.8-76.8-76.8z" />
<glyph unicode="&#xe911;" glyph-name="spread" d="M947.2 371.2h-870.4c-41.6 0-76.8 35.2-76.8 76.8s35.2 76.8 76.8 76.8h870.4c41.6 0 76.8-35.2 76.8-76.8s-35.2-76.8-76.8-76.8zM512-64c-41.6 0-76.8 35.2-76.8 76.8v870.4c0 41.6 35.2 76.8 76.8 76.8s76.8-35.2 76.8-76.8v-870.4c0-41.6-35.2-76.8-76.8-76.8z" />
<glyph unicode="&#xe912;" glyph-name="personal" d="M512 355.2c-166.4 0-300.8 134.4-300.8 300.8 0 169.6 134.4 304 300.8 304s300.8-134.4 300.8-300.8c0-166.4-134.4-304-300.8-304zM512 896c-131.2 0-236.8-105.6-236.8-236.8s105.6-236.8 236.8-236.8 236.8 105.6 236.8 236.8c0 131.2-105.6 236.8-236.8 236.8zM960-64c-16 0-32 12.8-32 28.8-12.8 217.6-195.2 390.4-416 390.4-217.6 0-400-169.6-416-387.2 0-19.2-16-32-35.2-28.8-19.2 0-32 16-28.8 35.2 16 252.8 227.2 448 480 448s464-198.4 480-451.2c0-19.2-12.8-35.2-32-35.2 3.2 0 0 0 0 0z" />
<glyph unicode="&#xe913;" glyph-name="edit2" d="M918.4 0h-812.8c-57.6 0-105.6 48-105.6 105.6v684.8c0 57.6 48 105.6 105.6 105.6h297.6c19.2 0 32-12.8 32-32s-12.8-32-32-32h-297.6c-22.4 0-41.6-19.2-41.6-41.6v-684.8c0-22.4 19.2-41.6 41.6-41.6h812.8c22.4 0 41.6 19.2 41.6 41.6v252.8c0 19.2 12.8 32 32 32s32-12.8 32-32v-252.8c0-57.6-48-105.6-105.6-105.6zM224 195.2c-9.6 0-19.2 3.2-25.6 12.8-12.8 12.8-9.6 35.2 3.2 44.8l761.6 633.6c12.8 12.8 35.2 9.6 44.8-3.2 12.8-12.8 9.6-35.2-3.2-44.8l-761.6-636.8c-3.2-6.4-12.8-6.4-19.2-6.4zM544 185.6h-76.8c-19.2 0-32 12.8-32 32s12.8 32 32 32h76.8c19.2 0 32-12.8 32-32 0-16-12.8-32-32-32zM809.6 185.6h-76.8c-19.2 0-32 12.8-32 32s12.8 32 32 32h76.8c19.2 0 32-12.8 32-32 0-16-16-32-32-32z" />
<glyph unicode="&#xe914;" glyph-name="quit" d="M931.2 412.8h-585.6c-19.2 0-35.2 16-35.2 35.2s16 35.2 35.2 35.2h585.6c19.2 0 35.2-16 35.2-35.2s-16-35.2-35.2-35.2zM931.2 412.8c-9.6 0-16 3.2-25.6 9.6l-240 236.8c-12.8 12.8-12.8 35.2 0 48s35.2 12.8 48 0l240-236.8c12.8-12.8 12.8-35.2 0-48-3.2-6.4-12.8-9.6-22.4-9.6zM691.2 176c-9.6 0-16 3.2-25.6 9.6-12.8 12.8-12.8 35.2 0 48l240 236.8c12.8 12.8 35.2 12.8 48 0s12.8-35.2 0-48l-240-236.8c-3.2-6.4-12.8-9.6-22.4-9.6zM508.8-64h-339.2c-60.8 0-112 51.2-112 112v800c0 60.8 51.2 112 112 112h339.2c19.2 0 35.2-16 35.2-35.2s-16-35.2-35.2-35.2h-339.2c-25.6 0-44.8-19.2-44.8-44.8v-800c0-25.6 19.2-44.8 44.8-44.8h339.2c19.2 0 35.2-16 35.2-35.2 0-12.8-16-28.8-35.2-28.8z" />
<glyph unicode="&#xe915;" glyph-name="leading-in" d="M745.6 803.2h-707.2c-22.4 0-38.4 16-38.4 38.4s16 38.4 38.4 38.4h707.2c22.4 0 38.4-16 38.4-38.4s-16-38.4-38.4-38.4zM432 409.6h-393.6c-22.4 0-38.4 16-38.4 38.4s16 38.4 38.4 38.4h393.6c22.4 0 38.4-16 38.4-38.4s-16-38.4-38.4-38.4zM432 16h-393.6c-22.4 0-38.4 16-38.4 38.4s16 38.4 38.4 38.4h393.6c22.4 0 38.4-16 38.4-38.4s-16-38.4-38.4-38.4zM985.6 259.2h-473.6c-22.4 0-38.4 16-38.4 38.4s16 38.4 38.4 38.4h470.4c22.4 0 38.4-16 38.4-38.4s-12.8-38.4-35.2-38.4zM748.8 19.2c-22.4 0-38.4 16-38.4 38.4v473.6c0 22.4 16 38.4 38.4 38.4s38.4-16 38.4-38.4v-470.4c0-22.4-16-41.6-38.4-41.6z" />
<glyph unicode="&#xe916;" glyph-name="launch" d="M512 403.2c-9.6 0-22.4 3.2-32 12.8l-435.2 438.4c-16 16-16 44.8 0 60.8s44.8 16 60.8 0l435.2-435.2c16-16 16-44.8 0-60.8-6.4-9.6-19.2-16-28.8-16zM512 403.2c-9.6 0-22.4 3.2-32 12.8-16 16-16 44.8 0 60.8l438.4 438.4c16 16 44.8 16 60.8 0s16-44.8 0-60.8l-435.2-438.4c-9.6-6.4-19.2-12.8-32-12.8zM512-32c-9.6 0-22.4 3.2-32 12.8l-435.2 435.2c-16 16-16 44.8 0 60.8s44.8 16 60.8 0l435.2-435.2c16-16 16-44.8 0-60.8-6.4-9.6-19.2-12.8-28.8-12.8zM512-32c-9.6 0-22.4 3.2-32 12.8-16 16-16 44.8 0 60.8l438.4 438.4c16 16 44.8 16 60.8 0s16-44.8 0-60.8l-435.2-438.4c-9.6-9.6-19.2-12.8-32-12.8z" />
<glyph unicode="&#xe917;" glyph-name="retract2" d="M512 492.8c9.6 0 22.4-3.2 32-12.8l435.2-435.2c16-16 16-44.8 0-60.8s-44.8-16-60.8 0l-435.2 432c-16 16-16 44.8 0 60.8 6.4 9.6 19.2 16 28.8 16zM512 492.8c9.6 0 22.4-3.2 32-12.8 16-16 16-44.8 0-60.8l-438.4-438.4c-16-16-44.8-16-60.8 0s-16 44.8 0 60.8l435.2 438.4c9.6 6.4 19.2 12.8 32 12.8zM512 928c9.6 0 22.4-3.2 32-12.8l435.2-435.2c16-16 16-44.8 0-60.8s-44.8-16-60.8 0l-435.2 435.2c-16 16-16 44.8 0 60.8 6.4 9.6 19.2 12.8 28.8 12.8zM512 928c9.6 0 22.4-3.2 32-12.8 16-16 16-44.8 0-60.8l-438.4-438.4c-16-16-44.8-16-60.8 0s-16 44.8 0 60.8l435.2 438.4c9.6 9.6 19.2 12.8 32 12.8z" />
<glyph unicode="&#xe918;" glyph-name="search" d="M428.8 99.2c-236.8 0-428.8 192-428.8 428.8s192 428.8 428.8 428.8 428.8-192 428.8-428.8-192-428.8-428.8-428.8zM428.8 880c-192 0-352-156.8-352-352s156.8-352 352-352 352 156.8 352 352-156.8 352-352 352zM985.6-60.8c-9.6 0-19.2 3.2-28.8 12.8l-272 272c-16 16-16 38.4 0 54.4s38.4 16 54.4 0l272-272c16-16 16-38.4 0-54.4-6.4-9.6-16-12.8-25.6-12.8z" />
<glyph unicode="&#xe919;" glyph-name="download" d="M515.2-64c-19.2 0-35.2 16-35.2 35.2v953.6c0 19.2 16 35.2 35.2 35.2s35.2-16 35.2-35.2v-950.4c0-22.4-16-38.4-35.2-38.4zM950.4-64h-880c-19.2 0-35.2 16-35.2 35.2s16 35.2 35.2 35.2h876.8c19.2 0 35.2-16 35.2-35.2s-12.8-35.2-32-35.2zM515.2-64c-9.6 0-19.2 3.2-25.6 9.6l-444.8 444.8c-12.8 12.8-12.8 38.4 0 51.2s38.4 12.8 51.2 0l444.8-441.6c12.8-12.8 12.8-38.4 0-51.2-9.6-9.6-19.2-12.8-25.6-12.8zM508.8-64c-9.6 0-19.2 3.2-25.6 9.6-12.8 12.8-12.8 38.4 0 51.2l444.8 444.8c12.8 12.8 38.4 12.8 51.2 0s12.8-38.4 0-51.2l-441.6-444.8c-9.6-6.4-19.2-9.6-28.8-9.6z" />
<glyph unicode="&#xe91a;" glyph-name="leadingin" d="M476.8-64c-166.4 0-326.4 83.2-422.4 220.8-9.6 16-3.2 35.2 9.6 48 16 9.6 35.2 6.4 48-9.6 83.2-118.4 220.8-192 364.8-192 243.2 0 444.8 198.4 444.8 444.8s-198.4 444.8-444.8 444.8c-147.2 0-284.8-73.6-368-195.2-9.6-16-32-22.4-44.8-9.6-16 9.6-19.2 32-9.6 48 96 140.8 252.8 224 422.4 224 281.6 0 512-230.4 512-512s-227.2-512-512-512zM681.6 412.8h-614.4c-19.2 0-35.2 16-35.2 35.2s16 35.2 35.2 35.2h614.4c19.2 0 35.2-16 35.2-35.2s-16-35.2-35.2-35.2zM681.6 412.8c-9.6 0-16 3.2-25.6 9.6l-169.6 169.6c-12.8 12.8-12.8 35.2 0 48s35.2 12.8 48 0l169.6-169.6c12.8-12.8 12.8-35.2 0-48-6.4-6.4-12.8-9.6-22.4-9.6zM512 246.4c-9.6 0-16 3.2-25.6 9.6-12.8 12.8-12.8 35.2 0 48l169.6 169.6c12.8 12.8 35.2 12.8 48 0s12.8-35.2 0-48l-166.4-169.6c-6.4-6.4-16-9.6-25.6-9.6z" />
<glyph unicode="&#xe91b;" glyph-name="success" d="M512-64c-281.6 0-512 230.4-512 512s230.4 512 512 512 512-230.4 512-512-230.4-512-512-512zM512 912c-256 0-464-208-464-464s208-464 464-464 464 208 464 464-208 464-464 464zM460.8 249.6c-6.4 0-12.8 3.2-16 6.4l-172.8 172.8c-9.6 9.6-9.6 25.6 0 35.2s25.6 9.6 35.2 0l172.8-172.8c9.6-9.6 9.6-25.6 0-35.2-6.4-6.4-12.8-6.4-19.2-6.4zM460.8 246.4c-6.4 0-12.8 3.2-16 6.4-9.6 9.6-9.6 25.6 0 35.2l313.6 313.6c9.6 9.6 25.6 9.6 35.2 0s9.6-25.6 0-35.2l-313.6-310.4c-6.4-6.4-12.8-9.6-19.2-9.6z" />
<glyph unicode="&#xe91c;" glyph-name="fail" d="M512-64c-281.6 0-512 230.4-512 512s230.4 512 512 512 512-230.4 512-512-230.4-512-512-512zM512 912c-256 0-464-208-464-464s208-464 464-464 464 208 464 464-208 464-464 464zM681.6 252.8c-6.4 0-12.8 3.2-16 6.4l-342.4 342.4c-9.6 9.6-9.6 25.6 0 35.2s25.6 9.6 35.2 0l342.4-342.4c9.6-9.6 9.6-25.6 0-35.2-6.4-3.2-12.8-6.4-19.2-6.4zM342.4 252.8c-6.4 0-12.8 3.2-16 6.4-9.6 9.6-9.6 25.6 0 35.2l342.4 342.4c9.6 9.6 25.6 9.6 35.2 0s9.6-25.6 0-35.2l-345.6-342.4c-3.2-3.2-9.6-6.4-16-6.4z" />
<glyph unicode="&#xe91d;" glyph-name="calendar" d="M348.8 672c-19.2 0-32 12.8-32 32v192c0 19.2 12.8 32 32 32s32-12.8 32-32v-192c0-16-12.8-32-32-32zM928 544h-800c-19.2 0-32 12.8-32 32s12.8 32 32 32h800c19.2 0 32-12.8 32-32s-12.8-32-32-32zM864-32h-704c-54.4 0-96 41.6-96 96v643.2c0 54.4 41.6 96 96 96h704c54.4 0 96-41.6 96-96v-643.2c0-54.4-41.6-96-96-96zM160 739.2c-19.2 0-32-12.8-32-32v-643.2c0-19.2 12.8-32 32-32h704c19.2 0 32 12.8 32 32v643.2c0 19.2-12.8 32-32 32h-704zM672 672c-19.2 0-32 12.8-32 32v192c0 19.2 12.8 32 32 32s32-12.8 32-32v-192c0-16-16-32-32-32zM288 352h-64c-19.2 0-32 12.8-32 32s12.8 32 32 32h64c19.2 0 32-12.8 32-32s-16-32-32-32zM800 352h-64c-19.2 0-32 12.8-32 32s12.8 32 32 32h64c19.2 0 32-12.8 32-32s-16-32-32-32zM544 352h-64c-19.2 0-32 12.8-32 32s12.8 32 32 32h64c19.2 0 32-12.8 32-32s-16-32-32-32zM288 160h-64c-19.2 0-32 12.8-32 32s12.8 32 32 32h64c19.2 0 32-12.8 32-32s-16-32-32-32zM544 160h-64c-19.2 0-32 12.8-32 32s12.8 32 32 32h64c19.2 0 32-12.8 32-32s-16-32-32-32z" />
<glyph unicode="&#xe91e;" glyph-name="grouping" d="M880-32h-736c-60.8 0-112 51.2-112 112v736c0 60.8 51.2 112 112 112h739.2c57.6 0 108.8-51.2 108.8-112v-739.2c0-57.6-51.2-108.8-112-108.8zM144 854.4c-19.2 0-38.4-16-38.4-38.4v-739.2c0-19.2 16-38.4 38.4-38.4h739.2c19.2 0 38.4 16 38.4 38.4v739.2c0 19.2-16 38.4-38.4 38.4h-739.2zM736 633.6h-224c-19.2 0-38.4 16-38.4 38.4s16 38.4 38.4 38.4h224c19.2 0 38.4-16 38.4-38.4s-19.2-38.4-38.4-38.4zM291.2 633.6c-3.2 0-9.6 0-12.8 3.2-6.4 0-9.6 3.2-12.8 6.4-6.4 6.4-9.6 16-9.6 25.6 0 3.2 0 9.6 3.2 12.8 0 3.2 3.2 9.6 9.6 12.8 0 6.4 3.2 6.4 9.6 9.6 12.8 6.4 28.8 3.2 38.4-9.6 6.4-6.4 9.6-16 9.6-25.6s-3.2-19.2-9.6-25.6c-3.2-3.2-6.4-6.4-12.8-9.6-3.2 0-6.4 0-12.8 0zM736 412.8h-224c-19.2 0-38.4 16-38.4 38.4 0 19.2 16 38.4 38.4 38.4h224c19.2 0 38.4-16 38.4-38.4-3.2-22.4-19.2-38.4-38.4-38.4zM291.2 412.8c-9.6 0-19.2 3.2-25.6 9.6-3.2 3.2-6.4 6.4-9.6 12.8 0 3.2 0 9.6 0 12.8 0 6.4 0 9.6 3.2 16 0 3.2 3.2 9.6 9.6 12.8 12.8 12.8 38.4 12.8 51.2 0 3.2-3.2 6.4-6.4 6.4-12.8 3.2-3.2 3.2-9.6 3.2-16 0-3.2 0-9.6-3.2-12.8 0-3.2-3.2-9.6-6.4-12.8-9.6-6.4-19.2-9.6-28.8-9.6zM736 188.8h-224c-19.2 0-38.4 16-38.4 38.4s16 38.4 38.4 38.4h224c19.2 0 38.4-16 38.4-38.4s-19.2-38.4-38.4-38.4zM291.2 188.8c-9.6 0-19.2 3.2-25.6 9.6-3.2 3.2-6.4 6.4-9.6 12.8 0 6.4 0 9.6 0 16 0 9.6 3.2 19.2 9.6 25.6 9.6 9.6 25.6 12.8 38.4 9.6 3.2-3.2 9.6-3.2 12.8-9.6 6.4-6.4 9.6-16 9.6-25.6s-3.2-19.2-9.6-25.6c-6.4-6.4-16-12.8-25.6-12.8z" />
<glyph unicode="&#xe91f;" glyph-name="name" d="M902.4 28.8h-780.8c-51.2 0-89.6 41.6-89.6 89.6v659.2c0 51.2 41.6 89.6 89.6 89.6h780.8c51.2 0 89.6-41.6 89.6-89.6v-659.2c0-51.2-41.6-89.6-89.6-89.6zM121.6 806.4c-16 0-28.8-12.8-28.8-28.8v-659.2c0-16 12.8-28.8 28.8-28.8h780.8c16 0 28.8 12.8 28.8 28.8v659.2c0 16-12.8 28.8-28.8 28.8h-780.8zM425.6 390.4h-118.4c-51.2 0-89.6 41.6-89.6 89.6v121.6c0 51.2 41.6 89.6 89.6 89.6h121.6c51.2 0 89.6-41.6 89.6-89.6v-121.6c0-48-41.6-89.6-92.8-89.6zM307.2 630.4c-16 0-28.8-12.8-28.8-28.8v-121.6c0-16 12.8-28.8 28.8-28.8h121.6c16 0 28.8 12.8 28.8 28.8v121.6c0 16-12.8 28.8-28.8 28.8h-121.6zM780.8 572.8h-121.6c-16 0-28.8 12.8-28.8 28.8s12.8 28.8 28.8 28.8h121.6c16 0 28.8-12.8 28.8-28.8s-12.8-28.8-28.8-28.8zM780.8 390.4h-121.6c-16 0-28.8 12.8-28.8 28.8s12.8 28.8 28.8 28.8h121.6c16 0 28.8-12.8 28.8-28.8s-12.8-28.8-28.8-28.8zM780.8 211.2h-537.6c-16 0-28.8 12.8-28.8 28.8s12.8 28.8 28.8 28.8h540.8c16 0 28.8-12.8 28.8-28.8s-12.8-28.8-32-28.8z" />
<glyph unicode="&#xe920;" glyph-name="phone-number" d="M800-64h-576c-54.4 0-96 41.6-96 96v832c0 54.4 41.6 96 96 96h576c54.4 0 96-41.6 96-96v-832c0-54.4-41.6-96-96-96zM224 896c-19.2 0-32-12.8-32-32v-832c0-19.2 12.8-32 32-32h576c19.2 0 32 12.8 32 32v832c0 19.2-12.8 32-32 32h-576zM160 262.4h704v-64h-704v64zM576 99.2c0-35.346-28.654-64-64-64s-64 28.654-64 64c0 35.346 28.654 64 64 64s64-28.654 64-64z" />
<glyph unicode="&#xe921;" glyph-name="title" d="M512-64c-281.6 0-512 230.4-512 512s230.4 512 512 512 512-230.4 512-512-230.4-512-512-512zM512 902.4c-249.6 0-454.4-204.8-454.4-454.4s204.8-454.4 454.4-454.4 454.4 204.8 454.4 454.4-204.8 454.4-454.4 454.4zM598.4 739.2h-169.6c-16 0-28.8 12.8-28.8 28.8s12.8 28.8 28.8 28.8h169.6c16 0 28.8-12.8 28.8-28.8s-12.8-28.8-28.8-28.8zM569.6 620.8h-115.2c-16 0-28.8 12.8-28.8 28.8s12.8 28.8 28.8 28.8h115.2c16 0 28.8-12.8 28.8-28.8s-12.8-28.8-28.8-28.8zM566.4 512h-115.2c-16 0-28.8 12.8-28.8 28.8s12.8 28.8 28.8 28.8h115.2c16 0 28.8-12.8 28.8-28.8s-12.8-28.8-28.8-28.8zM342.4 208c-3.2 0-6.4 0-9.6 3.2-16 6.4-22.4 22.4-16 35.2l112 304c6.4 16 22.4 22.4 35.2 16 16-6.4 22.4-22.4 16-35.2l-112-304c-3.2-12.8-16-19.2-25.6-19.2zM681.6 224c-12.8 0-22.4 6.4-25.6 19.2l-112 288c-6.4 16 0 32 16 38.4s32 0 38.4-16l112-288c6.4-16 0-32-16-38.4-6.4 0-9.6-3.2-12.8-3.2zM512 60.8c-6.4 0-12.8 3.2-19.2 6.4l-169.6 147.2c-12.8 9.6-12.8 28.8-3.2 41.6s28.8 12.8 41.6 3.2l169.6-147.2c12.8-9.6 12.8-28.8 3.2-41.6-6.4-6.4-16-9.6-22.4-9.6zM515.2 60.8c-6.4 0-16 3.2-19.2 9.6-9.6 9.6-9.6 28.8 0 41.6l166.4 166.4c9.6 9.6 28.8 9.6 41.6 0 9.6-9.6 9.6-28.8 0-41.6l-166.4-166.4c-9.6-9.6-16-9.6-22.4-9.6zM454.4 620.8c-12.8 0-25.6 9.6-28.8 22.4l-28.8 118.4c-3.2 16 6.4 32 22.4 35.2s32-6.4 35.2-22.4l28.8-118.4c3.2-16-6.4-32-22.4-35.2 0 3.2-3.2 0-6.4 0zM569.6 620.8c-3.2 0-3.2 0-6.4 0-16 3.2-25.6 19.2-22.4 35.2l28.8 118.4c3.2 16 19.2 25.6 35.2 22.4s25.6-19.2 22.4-35.2l-28.8-118.4c-6.4-12.8-16-22.4-28.8-22.4z" />
<glyph unicode="&#xe922;" glyph-name="history" d="M512-64c-281.6 0-512 230.4-512 512s230.4 512 512 512 512-230.4 512-512-230.4-512-512-512zM512 880c-240 0-432-192-432-432s192-432 432-432 432 192 432 432-192 432-432 432zM512 409.6c-22.4 0-38.4 19.2-38.4 38.4v275.2c0 22.4 19.2 38.4 38.4 38.4s38.4-19.2 38.4-38.4v-275.2c0-22.4-16-38.4-38.4-38.4zM713.6 409.6h-201.6c-22.4 0-38.4 19.2-38.4 38.4s19.2 38.4 38.4 38.4h201.6c22.4 0 38.4-19.2 38.4-38.4s-16-38.4-38.4-38.4z" />
<glyph unicode="&#xe923;" glyph-name="cancel2" d="M684.8-19.2v86.4c140.8 0 256 115.2 256 256s-115.2 256-256 256v83.2c185.6 0 339.2-153.6 339.2-342.4s-153.6-339.2-339.2-339.2zM684.8 576h-640c-25.6 0-44.8 19.2-44.8 44.8 0 22.4 19.2 41.6 41.6 41.6h640c22.4 0 41.6-19.2 41.6-41.6 3.2-25.6-16-44.8-38.4-44.8zM684.8-19.2h-470.4c-22.4 0-41.6 19.2-41.6 41.6s19.2 41.6 41.6 41.6h467.2c22.4 0 41.6-19.2 41.6-41.6 3.2-22.4-16-41.6-38.4-41.6zM41.6 576c-9.6 0-22.4 3.2-28.8 12.8-16 16-16 44.8 0 60.8l252.8 252.8c16 16 44.8 16 60.8 0s16-44.8 0-60.8l-252.8-252.8c-9.6-6.4-19.2-12.8-32-12.8zM294.4 323.2c-9.6 0-22.4 3.2-28.8 12.8l-252.8 252.8c-16 16-16 44.8 0 60.8s44.8 16 60.8 0l252.8-252.8c16-16 16-44.8 0-60.8-9.6-9.6-19.2-12.8-32-12.8z" />
<glyph unicode="&#xe924;" glyph-name="mail_looked" d="M252.8 310.4l112 105.6c0 0 0 0 0 0v0c0 0 3.2 0 3.2 3.2 3.2 0 3.2 3.2 6.4 3.2s3.2 0 6.4 0c0 0 3.2 0 3.2 0h256c0 0 3.2 0 3.2 0 3.2 0 3.2 0 6.4 0s3.2-3.2 6.4-3.2c0 0 3.2 0 3.2-3.2l102.4-96 233.6 233.6-236.8 284.8c-9.6 9.6-22.4 16-38.4 16h-412.8c-16 0-28.8-6.4-38.4-19.2v0l-252.8-304c0 0 0 0 0 0l-3.2-6.4 240-214.4zM3.2 76.8c3.2-19.2 19.2-32 35.2-35.2-19.2 3.2-32 19.2-35.2 35.2zM1020.8 512c-3.2 6.4-3.2 9.6-6.4 16 3.2-6.4 6.4-9.6 6.4-16zM217.6 275.2l-217.6 195.2v-380.8c0-3.2 0-9.6 3.2-12.8l214.4 198.4zM1020.8 512l-224-227.2 224-211.2c0-3.2-3.2-9.6-6.4-12.8 3.2 6.4 9.6 16 9.6 25.6v412.8c0 3.2 0 9.6-3.2 12.8zM630.4 371.2h-236.8l-355.2-329.6c3.2 0 9.6-3.2 12.8-3.2h921.6c3.2 0 6.4 0 9.6 3.2l-352 329.6zM982.4 41.6c12.8 3.2 25.6 9.6 32 22.4-6.4-12.8-16-19.2-32-22.4z" />
<glyph unicode="&#xe925;" glyph-name="mail" d="M512 380.8l464 425.6c0 0-3.2 0-3.2 0h-921.6c-3.2 0-6.4 0-9.6-3.2l470.4-422.4zM979.2 806.4c6.4 0 12.8-3.2 19.2-6.4-6.4 3.2-12.8 3.2-19.2 6.4zM1011.2 790.4c-3.2 3.2-3.2 3.2-6.4 6.4 3.2-3.2 3.2-6.4 6.4-6.4zM41.6 803.2c-12.8-3.2-25.6-9.6-32-19.2 6.4 9.6 19.2 16 32 19.2zM12.8 108.8c3.2-3.2 3.2-3.2 6.4-6.4-3.2 3.2-6.4 3.2-6.4 6.4zM0 134.4l339.2 329.6-336 304c0 3.2 3.2 9.6 6.4 12.8-6.4-6.4-9.6-16-9.6-25.6v-614.4c0-9.6 3.2-19.2 9.6-25.6-3.2 6.4-6.4 12.8-9.6 19.2zM998.4 99.2c-3.2-3.2-6.4-3.2-9.6-6.4 3.2 0 6.4 3.2 9.6 6.4zM1020.8 774.4c0 0 0 0 0 0l-336-307.2 339.2-336c-3.2-12.8-9.6-25.6-19.2-32 12.8 9.6 22.4 22.4 22.4 41.6v614.4c-3.2 6.4-6.4 16-6.4 19.2zM646.4 432l-115.2-105.6c0 0-3.2-3.2-3.2-3.2s-3.2 0-3.2-3.2c-6.4 0-9.6 0-12.8 0s-6.4 0-9.6 3.2c0 0 0 0-3.2 0s-3.2 3.2-6.4 3.2l-115.2 105.6-345.6-339.2c0 0 0 0-3.2 0 6.4-3.2 12.8-6.4 22.4-6.4h921.6c6.4 0 9.6 0 16 3.2l-342.4 342.4z" />
</font>
</defs>
</svg>
